<?xml version="1.0" encoding="utf-8"?>
<!-- Generator: Adobe Illustrator 19.0.0, SVG Export Plug-In . SVG Version: 6.00 Build 0)  -->
<svg version="1.1" id="Layer_1" xmlns="http://www.w3.org/2000/svg" xmlns:xlink="http://www.w3.org/1999/xlink" x="0px" y="0px"
	 viewBox="0 0 640 640" style="enable-background:new 0 0 640 640;" xml:space="preserve">
<style type="text/css">
	.st0{fill:#FFFFFF;stroke:#007BFF;stroke-width:20;stroke-miterlimit:10;}
	.st1{fill:#007BFF;}
</style>
<rect id="XMLID_1_" x="15" y="17.5" class="st0" width="609.9" height="581.1"/>
<g id="XMLID_2_">
	<path id="XMLID_4_" class="st1" d="M87.1,99.9h26.4v77.6h37.7v22.1H87.1V99.9z"/>
	<path id="XMLID_6_" class="st1" d="M188.6,149.3c0-32.8,18.7-51.2,46.3-51.2s46.3,18.6,46.3,51.2c0,32.8-18.7,52.1-46.3,52.1
		S188.6,182.1,188.6,149.3z M254.2,149.3c0-18.1-7.4-28.5-19.3-28.5s-19.3,10.4-19.3,28.5s7.4,29.4,19.3,29.4
		S254.2,167.4,254.2,149.3z"/>
	<path id="XMLID_9_" class="st1" d="M374.2,98c12.6,0,23.3,6.1,30.4,13.2l-14.4,16.3c-4.9-4.3-9.2-6.7-15.6-6.7
		c-12,0-22.1,10.7-22.1,28.8c0,18.7,8.6,29.1,21.5,29.1c7.7,0,13.2-3.4,17.5-8l14.4,16c-8.4,9.8-19.9,14.7-32.2,14.7
		c-26.1,0-48.2-16.9-48.2-50.9C325.4,117.1,348.4,98,374.2,98z"/>
	<path id="XMLID_11_" class="st1" d="M450.3,99.9h26.4V137h0.6l25.2-37.1h28.8l-29.8,40.5l35.6,59.2h-28.8l-22.1-38.3l-9.5,13.5
		v24.8h-26.4V99.9z"/>
	<path id="XMLID_13_" class="st1" d="M87.1,283.9h35.9c20.9,0,37.7,5.2,37.7,24.8c0,8.6-4.9,18.4-16.6,21.5v0.6
		c14.1,2.8,21.2,10.1,21.2,23.3c0,20.6-17.8,29.4-39.3,29.4h-39V283.9z M122.3,323.2c8.6,0,12.6-4.3,12.6-10.4c0-6.1-4-8.6-12.6-8.6
		h-8.9v19H122.3z M124.2,363.4c10.4,0,15.3-4,15.3-11.4s-4.9-10.4-15.3-10.4h-10.7v21.8H124.2z"/>
	<path id="XMLID_17_" class="st1" d="M207.3,333.3c0-32.8,18.7-51.2,46.3-51.2c27.6,0,46.3,18.6,46.3,51.2
		c0,32.8-18.7,52.1-46.3,52.1C226,385.5,207.3,366.2,207.3,333.3z M273,333.3c0-18.1-7.4-28.5-19.3-28.5c-12,0-19.3,10.4-19.3,28.5
		c0,18.1,7.4,29.4,19.3,29.4C265.6,362.8,273,351.4,273,333.3z"/>
	<path id="XMLID_20_" class="st1" d="M361.3,332.4l-25.5-48.5h29.4l6.7,16.3c2.1,4.6,4.3,10.1,7.1,16.6h0.6c2.1-6.4,4.3-12,6.1-16.6
		l5.8-16.3h28.2l-25.5,49.7l27,50H392l-8-17.8c-2.5-5.2-4.6-10.4-7.1-16.6h-0.6c-2.1,6.1-4.3,11.4-6.4,16.6l-7.4,17.8h-28.2
		L361.3,332.4z"/>
</g>
<g id="XMLID_3_">
</g>
<g id="XMLID_22_">
</g>
<g id="XMLID_23_">
</g>
<g id="XMLID_24_">
</g>
<g id="XMLID_25_">
</g>
<g id="XMLID_26_">
</g>
<g id="XMLID_27_">
</g>
<g id="XMLID_28_">
</g>
<g id="XMLID_29_">
</g>
<g id="XMLID_30_">
</g>
<g id="XMLID_31_">
</g>
<g id="XMLID_32_">
</g>
<g id="XMLID_33_">
</g>
<g id="XMLID_34_">
</g>
<g id="XMLID_35_">
</g>
</svg>
